<?xml version="1.0" encoding="utf-8"?>
<!-- Generator: Adobe Illustrator 16.0.0, SVG Export Plug-In . SVG Version: 6.00 Build 0)  -->
<!DOCTYPE svg PUBLIC "-//W3C//DTD SVG 1.1//EN" "http://www.w3.org/Graphics/SVG/1.1/DTD/svg11.dtd">
<svg version="1.1" id="Layer_1" xmlns="http://www.w3.org/2000/svg" xmlns:xlink="http://www.w3.org/1999/xlink" x="0px" y="0px"
	 width="121px" height="34px" viewBox="0 0 121 34" enable-background="new 0 0 121 34" xml:space="preserve">
<g>
	<g>
		<path fill="#FFFFFF" d="M51.371,24.16l-2.106-8.247l-2.089,8.247h-2.719l-3.439-12.01h2.863l2.106,8.679l2.287-8.679h1.999
			l2.269,8.679l2.106-8.679h2.863L54.09,24.16H51.371z"/>
		<path fill="#FFFFFF" d="M66.221,24.16l-0.756-2.035h-5.149l-0.756,2.035H56.66l4.627-12.01h3.205l4.627,12.01H66.221z
			 M62.89,14.708l-1.873,5.167h3.745L62.89,14.708z"/>
		<path fill="#FFFFFF" d="M70.124,24.16V12.15h2.575v9.759h5.077v2.25H70.124z"/>
		<path fill="#FFFFFF" d="M79.395,24.16V12.15h2.575v9.759h5.077v2.25H79.395z"/>
		<path fill="#FFFFFF" d="M88.772,24.16V12.15h8.499v2.251h-5.942v2.521h5.816v2.251h-5.816v4.987H88.772z"/>
		<path fill="#FFFFFF" d="M98.942,24.16V12.15h2.575v9.759h5.077v2.25H98.942z"/>
		<path fill="#FFFFFF" d="M109.383,24.16v-4.916l-4.609-7.094h2.917l2.971,4.808l2.971-4.808h2.899l-4.591,7.094v4.916H109.383z"/>
	</g>
</g>
<circle id="circle_1_" fill="#FFFFFF" cx="17.3" cy="17" r="16"/>
<g id="fly_1_">
	<path fill="#2ECC71" d="M26.094,16.317c-2-3.465-5.593-6.207-8.366-6.453c-0.03-0.003-0.064-0.003-0.095-0.006
		C17.532,9.852,17.429,9.84,17.33,9.84c-0.007,0-0.014,0.001-0.021,0.001S17.296,9.84,17.289,9.84c-0.099,0-0.203,0.012-0.304,0.019
		c-0.031,0.002-0.064,0.002-0.095,0.006c-2.772,0.246-6.365,2.988-8.366,6.453c-1.366,2.367-1.68,4.536-0.863,5.951
		c0.523,0.906,1.466,1.405,2.654,1.405c2.144,0,4.882-1.648,6.995-4.036c2.112,2.388,4.85,4.036,6.994,4.036
		c1.188,0,2.131-0.499,2.654-1.405C27.774,20.854,27.459,18.685,26.094,16.317z M17.309,16.726c-0.085-0.135-0.172-0.271-0.25-0.408
		c-1.213-2.1-1.224-3.572-0.864-4.195c0.075-0.13,0.303-0.52,1.115-0.527c0.812,0.007,1.04,0.397,1.115,0.527
		c0.359,0.623,0.349,2.095-0.863,4.195C17.481,16.455,17.395,16.591,17.309,16.726z M10.315,21.921c-0.83,0-1.06-0.398-1.135-0.529
		c-0.359-0.623-0.349-2.095,0.864-4.196c1.041-1.805,2.634-3.436,4.212-4.468c-0.097,1.27,0.331,2.817,1.284,4.468
		c0.204,0.354,0.429,0.696,0.664,1.034C14.4,20.357,12.012,21.921,10.315,21.921z M25.438,21.392
		c-0.075,0.131-0.305,0.529-1.135,0.529c-1.696,0-4.085-1.563-5.888-3.691c0.235-0.336,0.459-0.68,0.664-1.034
		c0.953-1.651,1.382-3.199,1.284-4.468c1.578,1.032,3.171,2.664,4.212,4.468C25.788,19.297,25.798,20.769,25.438,21.392z"/>
</g>
<g>
</g>
<g>
</g>
<g>
</g>
<g>
</g>
<g>
</g>
<g>
</g>
<g>
</g>
<g>
</g>
<g>
</g>
<g>
</g>
<g>
</g>
<g>
</g>
<g>
</g>
<g>
</g>
<g>
</g>
</svg>
